<svg width="24" height="24" viewBox="0 0 24 24" fill="none" xmlns="http://www.w3.org/2000/svg">
<path d="M20 15C20 17.8284 20 19.2426 19.1213 20.1213C18.2426 21 16.8284 21 14 21H10C7.17157 21 5.75736 21 4.87868 20.1213C4 19.2426 4 17.8284 4 15L4 8.17239C4 5.4891 4 4.14746 4.84429 3.7371C5.68859 3.32675 6.74355 4.15564 8.85347 5.81344L9.52872 6.34399C10.7151 7.27614 11.3083 7.74222 12 7.74222C12.6917 7.74222 13.2849 7.27614 14.4713 6.34399L15.1465 5.81344C17.2565 4.15564 18.3114 3.32675 19.1557 3.7371C20 4.14746 20 5.4891 20 8.17239V15Z" stroke="#D10000"/>
</svg>
